# xmcd
#
# Track frame offsets: 
#        150
#        2261
#        12671
#        24508
#        36383
#        48145
#        54394
#        64892
#        76721
#        88284
#        98918
#        107182
#        119238
#        129551
#        140479
#        151429
#
# Disc length: 2150 seconds
#
# Revision: 0
# Processed by: cddbd v1.5.2PL0 Copyright (c) Steve Scherf et al.
# Submitted via: ExactAudioCopy v1.3
#
DISCID=d5086410
DTITLE=Louvin Brothers - Love And Wealth: The Lost Recordings [CD1]
DYEAR=2018
DGENRE=Country
TTITLE0=Spoken Message From Ira Louvin
TTITLE1=It's All Off
TTITLE2=Take My Ring From Your Finger
TTITLE3=I'll Never Go Back (To The Ways Of Sin)
TTITLE4=Are You Missing Me?
TTITLE5=Coo, Coo, Coo
TTITLE6=Streamline Heartbreaker
TTITLE7=(I'm Changing The Words To) My Love Song
TTITLE8=Red Hen Boogie
TTITLE9=Unpucker
TTITLE10=Television Set
TTITLE11=Discontented Cowboy
TTITLE12=Two-Faced Heart
TTITLE13=Don't Compare The Future With The Past
TTITLE14=That's My Heart Talking
TTITLE15=I'm Gonna Love You One More Time
EXTD=
EXTT0=
EXTT1=
EXTT2=
EXTT3=
EXTT4=
EXTT5=
EXTT6=
EXTT7=
EXTT8=
EXTT9=
EXTT10=
EXTT11=
EXTT12=
EXTT13=
EXTT14=
EXTT15=
PLAYORDER=
